<svg width="30" height="21" viewBox="0 0 30 21" fill="none" xmlns="http://www.w3.org/2000/svg">
<path opacity="0.0495722" d="M8.784 20.336C6.08 20.336 3.992 19.568 2.52 18.032C1.064 16.496 0.336 14.04 0.336 10.664C0.336 7.288 1.064 4.832 2.52 3.296C3.992 1.76 6.08 0.991999 8.784 0.991999C11.488 0.991999 13.568 1.76 15.024 3.296C16.496 4.832 17.232 7.288 17.232 10.664C17.232 13.784 16.552 16.176 15.192 17.84C13.848 19.504 11.712 20.336 8.784 20.336ZM8.784 16.064C9.872 16.064 10.416 15.472 10.416 14.288V7.04C10.416 5.856 9.872 5.264 8.784 5.264C7.696 5.264 7.152 5.856 7.152 7.04V14.288C7.152 15.472 7.696 16.064 8.784 16.064ZM18.6341 20V16.064H20.9381V5.264H17.9141V2.552L23.2421 1.328H27.2741V16.064H29.2901V20H18.6341Z" fill="black"/>
</svg>
