<svg width="33" height="21" viewBox="0 0 33 21" fill="none" xmlns="http://www.w3.org/2000/svg">
<path opacity="0.0495722" d="M8.784 20.336C6.08 20.336 3.992 19.568 2.52 18.032C1.064 16.496 0.336 14.04 0.336 10.664C0.336 7.288 1.064 4.832 2.52 3.296C3.992 1.76 6.08 0.991999 8.784 0.991999C11.488 0.991999 13.568 1.76 15.024 3.296C16.496 4.832 17.232 7.288 17.232 10.664C17.232 13.784 16.552 16.176 15.192 17.84C13.848 19.504 11.712 20.336 8.784 20.336ZM8.784 16.064C9.872 16.064 10.416 15.472 10.416 14.288V7.04C10.416 5.856 9.872 5.264 8.784 5.264C7.696 5.264 7.152 5.856 7.152 7.04V14.288C7.152 15.472 7.696 16.064 8.784 16.064ZM17.8661 17.936C17.8661 16.56 18.0661 15.344 18.4661 14.288C18.8821 13.232 19.5541 12.24 20.4821 11.312C21.4101 10.368 22.6901 9.392 24.3221 8.384C24.8021 8.08 25.1381 7.824 25.3301 7.616C25.5381 7.392 25.6421 7.128 25.6421 6.824C25.6421 6.168 25.1701 5.84 24.2261 5.84C23.5221 5.84 22.7141 6.024 21.8021 6.392C20.8901 6.76 20.0661 7.224 19.3301 7.784L17.9141 2.672C18.9381 2.16 20.1141 1.728 21.4421 1.376C22.7701 1.008 24.1061 0.823999 25.4501 0.823999C27.6581 0.823999 29.3701 1.312 30.5861 2.288C31.8021 3.264 32.4101 4.648 32.4101 6.44C32.4101 7.4 32.1941 8.248 31.7621 8.984C31.3461 9.704 30.8341 10.312 30.2261 10.808C29.6341 11.304 28.8581 11.872 27.8981 12.512C26.8261 13.216 26.0341 13.824 25.5221 14.336C25.0261 14.832 24.7781 15.408 24.7781 16.064H27.6821V14.696H32.6021V20H17.8661V17.936Z" fill="black"/>
</svg>
