<svg width="33" height="21" viewBox="0 0 33 21" fill="none" xmlns="http://www.w3.org/2000/svg">
<path opacity="0.0495722" d="M8.784 20.336C6.08 20.336 3.992 19.568 2.52 18.032C1.064 16.496 0.336 14.04 0.336 10.664C0.336 7.288 1.064 4.832 2.52 3.296C3.992 1.76 6.08 0.991999 8.784 0.991999C11.488 0.991999 13.568 1.76 15.024 3.296C16.496 4.832 17.232 7.288 17.232 10.664C17.232 13.784 16.552 16.176 15.192 17.84C13.848 19.504 11.712 20.336 8.784 20.336ZM8.784 16.064C9.872 16.064 10.416 15.472 10.416 14.288V7.04C10.416 5.856 9.872 5.264 8.784 5.264C7.696 5.264 7.152 5.856 7.152 7.04V14.288C7.152 15.472 7.696 16.064 8.784 16.064ZM29.2421 10.472C29.7381 10.6 30.2101 10.864 30.6581 11.264C31.1221 11.648 31.4981 12.136 31.7861 12.728C32.0901 13.32 32.2421 13.976 32.2421 14.696C32.2421 16.456 31.6101 17.84 30.3461 18.848C29.0981 19.84 27.2421 20.336 24.7781 20.336C23.6101 20.336 22.4421 20.208 21.2741 19.952C20.1061 19.68 19.0661 19.352 18.1541 18.968V13.856C19.1461 14.288 20.1701 14.64 21.2261 14.912C22.2981 15.184 23.3141 15.32 24.2741 15.32C24.9461 15.32 25.4341 15.216 25.7381 15.008C26.0581 14.8 26.2181 14.456 26.2181 13.976C26.2181 13.048 25.6581 12.584 24.5381 12.584H22.8101V8.648H24.1541C25.2101 8.648 25.7381 8.2 25.7381 7.304C25.7381 6.44 25.2101 6.008 24.1541 6.008C23.3861 6.008 22.5861 6.192 21.7541 6.56C20.9221 6.912 20.1141 7.376 19.3301 7.952L17.9141 2.84C18.8901 2.328 20.0021 1.896 21.2501 1.544C22.4981 1.176 23.7541 0.991999 25.0181 0.991999C27.2261 0.991999 28.9221 1.456 30.1061 2.384C31.2901 3.312 31.8821 4.624 31.8821 6.32C31.8821 7.376 31.6341 8.248 31.1381 8.936C30.6421 9.608 30.0101 10.12 29.2421 10.472Z" fill="black"/>
</svg>
