<svg width="33" height="21" viewBox="0 0 33 21" fill="none" xmlns="http://www.w3.org/2000/svg">
<path opacity="0.0495722" d="M8.784 20.336C6.08 20.336 3.992 19.568 2.52 18.032C1.064 16.496 0.336 14.04 0.336 10.664C0.336 7.288 1.064 4.832 2.52 3.296C3.992 1.76 6.08 0.991999 8.784 0.991999C11.488 0.991999 13.568 1.76 15.024 3.296C16.496 4.832 17.232 7.288 17.232 10.664C17.232 13.784 16.552 16.176 15.192 17.84C13.848 19.504 11.712 20.336 8.784 20.336ZM8.784 16.064C9.872 16.064 10.416 15.472 10.416 14.288V7.04C10.416 5.856 9.872 5.264 8.784 5.264C7.696 5.264 7.152 5.856 7.152 7.04V14.288C7.152 15.472 7.696 16.064 8.784 16.064ZM27.3461 7.664C29.1381 7.664 30.5061 8.192 31.4501 9.248C32.3941 10.304 32.8661 11.736 32.8661 13.544C32.8661 14.904 32.5541 16.096 31.9301 17.12C31.3221 18.144 30.4101 18.936 29.1941 19.496C27.9781 20.056 26.5061 20.336 24.7781 20.336C23.6101 20.336 22.4421 20.208 21.2741 19.952C20.1061 19.68 19.0661 19.352 18.1541 18.968V13.856C20.2341 14.832 22.1221 15.32 23.8181 15.32C24.6981 15.32 25.3541 15.144 25.7861 14.792C26.2181 14.424 26.4341 13.856 26.4341 13.088C26.4341 12.528 26.3061 12.088 26.0501 11.768C25.7941 11.448 25.3861 11.288 24.8261 11.288C24.3941 11.288 24.0421 11.4 23.7701 11.624C23.5141 11.832 23.3061 12.136 23.1461 12.536H18.1061L19.1381 1.328H31.9061V5.984H23.9381L23.7221 8.456C24.7301 7.928 25.9381 7.664 27.3461 7.664Z" fill="black"/>
</svg>
