<svg width="35" height="21" viewBox="0 0 35 21" fill="none" xmlns="http://www.w3.org/2000/svg">
<path opacity="0.0495722" d="M8.784 20.336C6.08 20.336 3.992 19.568 2.52 18.032C1.064 16.496 0.336 14.04 0.336 10.664C0.336 7.288 1.064 4.832 2.52 3.296C3.992 1.76 6.08 0.991999 8.784 0.991999C11.488 0.991999 13.568 1.76 15.024 3.296C16.496 4.832 17.232 7.288 17.232 10.664C17.232 13.784 16.552 16.176 15.192 17.84C13.848 19.504 11.712 20.336 8.784 20.336ZM8.784 16.064C9.872 16.064 10.416 15.472 10.416 14.288V7.04C10.416 5.856 9.872 5.264 8.784 5.264C7.696 5.264 7.152 5.856 7.152 7.04V14.288C7.152 15.472 7.696 16.064 8.784 16.064ZM28.3541 8.216C30.1301 8.216 31.5141 8.728 32.5061 9.752C33.5141 10.776 34.0181 12.2 34.0181 14.024C34.0181 16.056 33.3461 17.616 32.0021 18.704C30.6741 19.792 28.7941 20.336 26.3621 20.336C23.5461 20.336 21.4501 19.576 20.0741 18.056C18.6981 16.52 18.0101 14.176 18.0101 11.024C18.0101 7.568 18.8181 5.032 20.4341 3.416C22.0661 1.8 24.3061 0.991999 27.1541 0.991999C28.3221 0.991999 29.4101 1.096 30.4181 1.304C31.4261 1.496 32.2341 1.752 32.8421 2.072V6.92C32.2341 6.648 31.5381 6.432 30.7541 6.272C29.9701 6.096 29.1381 6.008 28.2581 6.008C25.9701 6.008 24.8261 6.856 24.8261 8.552V8.84C25.3221 8.664 25.8821 8.52 26.5061 8.408C27.1301 8.28 27.7461 8.216 28.3541 8.216ZM26.4581 16.064C27.0021 16.064 27.4101 15.904 27.6821 15.584C27.9541 15.248 28.0901 14.728 28.0901 14.024C28.0901 13.384 27.9461 12.888 27.6581 12.536C27.3861 12.168 26.9621 11.984 26.3861 11.984C25.8421 11.984 25.3221 12.088 24.8261 12.296V14.216C24.8261 14.856 24.9621 15.328 25.2341 15.632C25.5061 15.92 25.9141 16.064 26.4581 16.064Z" fill="black"/>
</svg>
